<?xml version="1.0" encoding="UTF-8" standalone="no"?>
<!DOCTYPE svg PUBLIC "-//W3C//DTD SVG 1.1//EN" "http://www.w3.org/Graphics/SVG/1.1/DTD/svg11.dtd">
<svg width="100%" height="100%" viewBox="0 0 1024 1024" version="1.1" xmlns="http://www.w3.org/2000/svg" xmlns:xlink="http://www.w3.org/1999/xlink" xml:space="preserve" xmlns:serif="http://www.serif.com/" style="fill-rule:evenodd;clip-rule:evenodd;stroke-linejoin:round;stroke-miterlimit:2;">
    <g transform="matrix(1.2,0,0,1.2,-102.4,-102.4)">
        <path d="M853.333,170.667C853.333,170.667 170.667,170.667 170.667,170.667C123.52,170.667 85.76,208.853 85.76,256L85.333,768C85.333,815.147 123.52,853.333 170.667,853.333L853.333,853.333C900.48,853.333 938.667,815.147 938.667,768L938.667,256C938.667,208.853 900.48,170.667 853.333,170.667ZM853.333,341.333L512,554.667L170.667,341.333L170.667,256L512,469.333L853.333,256L853.333,341.333Z" style="fill-rule:nonzero;"/>
    </g>
</svg>
