<?xml version="1.0" encoding="UTF-8" standalone="no"?>
<!DOCTYPE svg PUBLIC "-//W3C//DTD SVG 1.1//EN" "http://www.w3.org/Graphics/SVG/1.1/DTD/svg11.dtd">
<svg width="100%" height="100%" viewBox="0 0 200 200" version="1.1" xmlns="http://www.w3.org/2000/svg" xmlns:xlink="http://www.w3.org/1999/xlink" xml:space="preserve" xmlns:serif="http://www.serif.com/" style="fill-rule:evenodd;clip-rule:evenodd;stroke-linecap:round;stroke-linejoin:round;stroke-miterlimit:1.5;">
    <g transform="matrix(1,0,0,1,8.37989,-12.2207)">
        <circle cx="12.64" cy="99.092" r="6.634" style="fill:none;stroke:black;stroke-width:1.55px;"/>
    </g>
    <g transform="matrix(1,0,0,1,98.743,37.2207)">
        <circle cx="12.64" cy="99.092" r="6.634" style="fill:none;stroke:black;stroke-width:1.55px;"/>
    </g>
    <g transform="matrix(1,0,0,1,68.7151,-12.2207)">
        <circle cx="12.64" cy="99.092" r="6.634" style="fill:none;stroke:black;stroke-width:1.55px;"/>
    </g>
    <g transform="matrix(1,0,0,1,159.078,37.2207)">
        <circle cx="12.64" cy="99.092" r="6.634" style="fill:none;stroke:black;stroke-width:1.55px;"/>
    </g>
    <g transform="matrix(1,0,0,1,4.7486,-13.1285)">
        <path d="M22.905,100L69.972,100" style="fill:none;stroke:black;stroke-width:1.55px;"/>
    </g>
    <g transform="matrix(1,0,0,1,4.7486,-13.1285)">
        <path d="M80.866,106.634L102.654,142.807" style="fill:none;stroke:black;stroke-width:1.55px;"/>
    </g>
    <g transform="matrix(1,0,0,1,4.7486,-13.1285)">
        <path d="M113.268,149.441L160.335,149.441" style="fill:none;stroke:black;stroke-width:1.55px;"/>
    </g>
</svg>
