<?xml version="1.0" encoding="UTF-8" standalone="no"?>
<!DOCTYPE svg PUBLIC "-//W3C//DTD SVG 1.1//EN" "http://www.w3.org/Graphics/SVG/1.1/DTD/svg11.dtd">
<svg width="100%" height="100%" viewBox="0 0 1024 1024" version="1.1" xmlns="http://www.w3.org/2000/svg" xmlns:xlink="http://www.w3.org/1999/xlink" xml:space="preserve" xmlns:serif="http://www.serif.com/" style="fill-rule:evenodd;clip-rule:evenodd;stroke-linejoin:round;stroke-miterlimit:2;">
    <g transform="matrix(1.15019,0,0,1.15019,-76.8986,-74.6242)">
        <path d="M957.143,475.429C957.143,495.619 950.095,512.762 936,526.857L564,899.429C549.143,913.524 531.81,920.571 512,920.571C491.81,920.571 474.667,913.524 460.571,899.429L88.571,526.857C74.095,513.143 66.857,496 66.857,475.429C66.857,455.238 74.095,437.905 88.571,423.429L130.857,380.571C145.714,366.476 163.048,359.429 182.857,359.429C203.048,359.429 220.19,366.476 234.286,380.571L402.286,548.571L402.286,146.286C402.286,126.476 409.524,109.333 424,94.857C438.476,80.381 455.619,73.143 475.429,73.143L548.571,73.143C568.381,73.143 585.524,80.381 600,94.857C614.476,109.333 621.714,126.476 621.714,146.286L621.714,548.571L789.714,380.571C803.81,366.476 820.952,359.429 841.143,359.429C860.952,359.429 878.286,366.476 893.143,380.571L936,423.429C950.095,438.286 957.143,455.619 957.143,475.429Z" style="fill-rule:nonzero;"/>
    </g>
</svg>
